<?xml version="1.0" standalone="no"?>
<!DOCTYPE svg PUBLIC "-//W3C//DTD SVG 20010904//EN"
 "http://www.w3.org/TR/2001/REC-SVG-20010904/DTD/svg10.dtd">
<svg version="1.0" xmlns="http://www.w3.org/2000/svg"
 width="918.000000pt" height="918.000000pt" viewBox="0 0 918.000000 918.000000"
 preserveAspectRatio="xMidYMid meet">
<metadata>
Created by potrace 1.11, written by Peter Selinger 2001-2013
</metadata>
<g transform="translate(0.000000,918.000000) scale(0.100000,-0.100000)"
fill="#000000" stroke="none">
<path d="M7335 8280 c-98 -18 -231 -61 -320 -105 -170 -84 -265 -181 -273
-281 -4 -48 1 -63 65 -196 38 -78 82 -162 97 -186 63 -100 134 -106 298 -24
156 77 235 96 398 96 98 0 153 -5 200 -18 212 -58 386 -210 499 -435 110 -218
92 -528 -47 -806 -168 -338 -459 -594 -805 -710 -156 -52 -273 -68 -457 -62
-222 8 -385 49 -605 151 -113 53 -212 113 -390 237 -199 138 -335 219 -535
318 -534 264 -1030 381 -1621 381 -452 0 -862 -67 -1323 -217 -481 -156 -703
-288 -793 -471 -26 -52 -28 -66 -27 -167 0 -98 4 -119 31 -190 72 -192 483
-948 647 -1190 212 -315 516 -365 938 -154 181 91 410 259 613 450 l99 94 -43
-62 c-139 -200 -371 -451 -521 -565 -162 -123 -324 -203 -475 -235 -107 -23
-287 -13 -387 22 -136 47 -270 141 -363 255 -30 36 -90 127 -135 201 -81 135
-308 577 -370 722 -19 42 -37 77 -41 77 -16 0 -227 -93 -299 -133 -407 -221
-731 -562 -959 -1010 -233 -458 -374 -1030 -421 -1707 -13 -191 -13 -716 1
-916 10 -161 45 -500 56 -541 l5 -23 554 0 553 0 10 38 c5 20 17 66 26 102 61
239 196 493 335 630 113 112 225 168 356 177 274 20 510 -201 643 -604 22 -65
47 -158 56 -208 9 -49 18 -100 21 -113 l4 -22 424 0 424 0 27 88 c159 513 417
868 715 985 326 127 735 1 1198 -370 181 -146 482 -452 632 -645 l45 -58 554
0 554 0 -6 28 c-13 65 -37 266 -47 386 -39 503 48 964 264 1394 105 210 225
391 539 819 306 417 432 616 641 1012 330 626 511 1142 571 1623 17 142 20
454 5 578 -53 426 -242 848 -499 1114 -53 54 -134 127 -181 162 -95 72 -303
180 -424 220 -172 56 -237 66 -466 69 -118 2 -237 0 -265 -5z"/>
</g>
</svg>
