<?xml version="1.0" standalone="no"?>
<!DOCTYPE svg PUBLIC "-//W3C//DTD SVG 20010904//EN"
 "http://www.w3.org/TR/2001/REC-SVG-20010904/DTD/svg10.dtd">
<svg version="1.0" xmlns="http://www.w3.org/2000/svg"
 width="700.000000pt" height="700.000000pt" viewBox="0 0 700.000000 700.000000"
 preserveAspectRatio="xMidYMid meet">
<metadata>
Created by potrace 1.11, written by Peter Selinger 2001-2013
</metadata>
<g transform="translate(0.000000,700.000000) scale(0.100000,-0.100000)"
fill="#000000" stroke="none">
<path d="M5540 6299 c-233 -56 -400 -179 -400 -294 0 -32 108 -260 143 -301
39 -46 91 -45 205 5 136 60 186 71 317 71 149 1 243 -34 359 -130 67 -57 119
-126 162 -215 43 -91 48 -117 49 -255 0 -141 -18 -217 -86 -355 -119 -244
-302 -414 -562 -524 -197 -84 -478 -88 -707 -11 -59 19 -142 54 -174 72 -11 5
-40 22 -65 36 -25 14 -109 66 -186 117 -278 182 -463 282 -665 359 -52 20
-104 41 -115 45 -78 34 -354 100 -480 116 -27 3 -63 8 -80 10 -130 17 -417 22
-548 10 -291 -27 -392 -45 -661 -121 -429 -121 -654 -243 -728 -394 -26 -53
-32 -170 -12 -236 11 -39 60 -151 88 -204 7 -14 44 -83 81 -155 38 -71 77
-142 87 -158 11 -15 16 -27 13 -27 -3 0 2 -12 13 -27 10 -16 34 -55 51 -88 18
-33 52 -90 74 -128 23 -37 56 -90 72 -117 72 -118 174 -207 276 -239 42 -13
156 -17 213 -8 212 38 480 204 758 470 26 25 22 6 -6 -29 -13 -16 -52 -65 -87
-109 -96 -121 -267 -285 -361 -348 -162 -108 -278 -147 -425 -142 -126 4 -152
10 -240 52 -177 85 -277 222 -512 703 -106 217 -106 216 -133 212 -37 -4 -256
-115 -337 -170 -203 -138 -369 -311 -510 -531 -56 -88 -181 -338 -181 -363 0
-8 -4 -18 -9 -23 -7 -8 -28 -64 -36 -95 -1 -3 -5 -12 -8 -20 -21 -50 -94 -334
-113 -440 -21 -115 -30 -175 -39 -250 -4 -30 -8 -66 -10 -80 -14 -89 -19 -245
-20 -525 0 -281 4 -400 19 -535 2 -19 7 -68 11 -107 4 -40 8 -81 10 -90 2 -10
4 -28 4 -40 l1 -23 425 0 424 0 11 43 c80 317 229 553 407 643 53 26 67 29
158 29 91 0 105 -3 156 -29 176 -90 304 -314 366 -636 l8 -45 324 0 323 0 38
110 c111 322 242 522 426 647 253 172 580 104 989 -205 123 -94 474 -451 529
-539 10 -17 42 -18 435 -18 l423 0 -7 46 c-3 25 -8 55 -11 67 -2 12 -6 51 -10
87 -3 36 -8 74 -10 85 -7 29 -6 363 1 410 22 161 22 166 45 260 64 273 190
527 424 855 41 58 78 110 83 115 5 6 24 33 43 60 19 28 37 52 40 55 7 7 64 87
144 203 239 348 484 825 615 1201 39 111 94 303 106 371 3 17 12 71 21 120 23
123 27 487 7 582 -7 37 -15 75 -17 83 -14 68 -57 213 -68 225 -4 5 -8 15 -8
22 0 18 -94 208 -128 259 -15 23 -40 61 -56 85 -46 68 -193 210 -273 262 -114
75 -305 159 -391 173 -15 2 -38 7 -52 10 -14 4 -104 7 -200 9 -142 2 -189 -1
-250 -16z"/>
</g>
</svg>
